<svg xmlns="http://www.w3.org/2000/svg" version="1.1" xmlns:xlink="http://www.w3.org/1999/xlink" xmlns:svgjs="http://svgjs.com/svgjs" width="1440" height="560" preserveAspectRatio="none" viewBox="0 0 1440 560"><g mask="url(&quot;#SvgjsMask1146&quot;)" fill="none"><rect width="124.88" height="124.88" clip-path="url(&quot;#SvgjsClipPath1147&quot;)" x="1278.43" y="379.27" fill="url(#SvgjsPattern1148)" transform="rotate(266.61, 1340.87, 441.71)"></rect><rect width="367.92" height="367.92" clip-path="url(&quot;#SvgjsClipPath1149&quot;)" x="1020.9" y="85.08" fill="url(#SvgjsPattern1150)" transform="rotate(11.37, 1204.86, 269.04)"></rect><path d="M370.4 591.6800000000001 L347.21000000000004 613.06L338.08937796608035 581.6543779660803z" stroke="rgba(9, 9, 121, 1)" stroke-width="1.88"></path><path d="M859.84 276.75a5.6 5.6 0 1 0 9.83 5.36 5.6 5.6 0 1 0-9.83-5.36zM873.89 284.41a5.6 5.6 0 1 0 9.83 5.36 5.6 5.6 0 1 0-9.83-5.36zM887.93 292.07a5.6 5.6 0 1 0 9.84 5.36 5.6 5.6 0 1 0-9.84-5.36zM901.98 299.73a5.6 5.6 0 1 0 9.84 5.36 5.6 5.6 0 1 0-9.84-5.36z" fill="rgba(0, 212, 255, 1)"></path><circle r="46.666666666666664" cx="1367.25" cy="123.7" stroke="rgba(0, 212, 255, 1)" stroke-width="1" stroke-dasharray="4, 4"></circle><path d="M960.97 76.8L955.67 65.13 965.89 57.41 960.6 45.75 970.81 38.03 965.52 26.36 975.73 18.64" stroke="rgba(144, 6, 161, 1)" stroke-width="1"></path><path d="M462.17 164.46 L543.13 142.93L463.8782854967238 114.92328549672379z" stroke="rgba(9, 9, 121, 1)" stroke-width="2.96"></path><rect width="135.96" height="135.96" clip-path="url(&quot;#SvgjsClipPath1151&quot;)" x="742.27" y="190.83" fill="url(#SvgjsPattern1152)" transform="rotate(130.74, 810.25, 258.81)"></rect><rect width="200.64" height="200.64" clip-path="url(&quot;#SvgjsClipPath1153&quot;)" x="550.68" y="375.38" fill="url(#SvgjsPattern1154)" transform="rotate(352.41, 651, 475.7)"></rect><rect width="191.2" height="191.2" clip-path="url(&quot;#SvgjsClipPath1155&quot;)" x="577.31" y="337.86" fill="url(#SvgjsPattern1156)" transform="rotate(2.59, 672.91, 433.46)"></rect><path d="M51.84 643.67 L55.17999999999999 653.87L59.76290519428842 642.5170948057115z" stroke="rgba(144, 6, 161, 1)" stroke-width="2.4" stroke-dasharray="3, 3"></path><rect width="88" height="88" clip-path="url(&quot;#SvgjsClipPath1157&quot;)" x="1356.35" y="283.09" fill="url(#SvgjsPattern1158)" transform="rotate(211.6, 1400.35, 327.09)"></rect></g><defs><mask id="SvgjsMask1146"><rect width="1440" height="560" fill="#ffffff"></rect></mask><pattern x="0" y="0" width="8.92" height="8.92" patternUnits="userSpaceOnUse" id="SvgjsPattern1148"><path d="M0 8.92L4.46 0L8.92 8.92" stroke="rgba(144, 6, 161, 1)" fill="none"></path></pattern><clipPath id="SvgjsClipPath1147"><circle r="31.22" cx="1340.87" cy="441.71"></circle></clipPath><pattern x="0" y="0" width="367.92" height="10.22" patternUnits="userSpaceOnUse" id="SvgjsPattern1150"><rect width="367.92" height="5.11" x="0" y="0" fill="rgba(144, 6, 161, 1)"></rect><rect width="367.92" height="5.11" x="0" y="5.11" fill="rgba(0, 0, 0, 0)"></rect></pattern><clipPath id="SvgjsClipPath1149"><circle r="91.98" cx="1204.86" cy="269.04"></circle></clipPath><pattern x="0" y="0" width="135.96" height="6.18" patternUnits="userSpaceOnUse" id="SvgjsPattern1152"><rect width="135.96" height="3.09" x="0" y="0" fill="rgba(0, 212, 255, 1)"></rect><rect width="135.96" height="3.09" x="0" y="3.09" fill="rgba(0, 0, 0, 0)"></rect></pattern><clipPath id="SvgjsClipPath1151"><circle r="33.99" cx="810.25" cy="258.81"></circle></clipPath><pattern x="0" y="0" width="9.12" height="9.12" patternUnits="userSpaceOnUse" id="SvgjsPattern1154"><path d="M4.56 1L4.56 8.12M1 4.56L8.12 4.56" stroke="rgba(9, 9, 121, 1)" fill="none" stroke-width="2.81"></path></pattern><clipPath id="SvgjsClipPath1153"><circle r="50.16" cx="651" cy="475.7"></circle></clipPath><pattern x="0" y="0" width="191.2" height="9.56" patternUnits="userSpaceOnUse" id="SvgjsPattern1156"><rect width="191.2" height="4.78" x="0" y="0" fill="rgba(144, 6, 161, 1)"></rect><rect width="191.2" height="4.78" x="0" y="4.78" fill="rgba(0, 0, 0, 0)"></rect></pattern><clipPath id="SvgjsClipPath1155"><circle r="47.8" cx="672.91" cy="433.46"></circle></clipPath><pattern x="0" y="0" width="8.8" height="8.8" patternUnits="userSpaceOnUse" id="SvgjsPattern1158"><path d="M4.4 1L4.4 7.800000000000001M1 4.4L7.800000000000001 4.4" stroke="rgba(144, 6, 161, 1)" fill="none" stroke-width="1.24"></path></pattern><clipPath id="SvgjsClipPath1157"><circle r="22" cx="1400.35" cy="327.09"></circle></clipPath></defs></svg>