<svg xmlns="http://www.w3.org/2000/svg" version="1.1" xmlns:xlink="http://www.w3.org/1999/xlink" xmlns:svgjs="http://svgjs.com/svgjs" width="1000" height="2000" preserveAspectRatio="none" viewBox="0 0 1000 2000"><g mask="url(&quot;#SvgjsMask6555&quot;)" fill="none"><circle r="108.36290513223574" cx="625.14" cy="1275.02" fill="rgba(0, 212, 255, 1)"></circle><rect width="60" height="60" clip-path="url(&quot;#SvgjsClipPath6556&quot;)" x="401.57" y="1486.69" fill="url(#SvgjsPattern6557)" transform="rotate(31.46, 431.57, 1516.69)"></rect><path d="M1053.89 1328.02 L1045.8700000000001 1340.6499999999999L1042.4232365191167 1326.8782365191166z" stroke="rgba(144, 6, 161, 1)" stroke-width="1.9" stroke-dasharray="3, 2"></path><path d="M515.1 553.25a5.6 5.6 0 1 0-11.13 1.17 5.6 5.6 0 1 0 11.13-1.17zM499.19 554.93a5.6 5.6 0 1 0-11.14 1.18 5.6 5.6 0 1 0 11.14-1.18zM483.28 556.61a5.6 5.6 0 1 0-11.14 1.18 5.6 5.6 0 1 0 11.14-1.18zM467.37 558.29a5.6 5.6 0 1 0-11.14 1.18 5.6 5.6 0 1 0 11.14-1.18z" stroke="rgba(144, 6, 161, 1)" stroke-width="2.27" stroke-dasharray="2, 2"></path><path d="M545.39 951.75L540.55 963.61 527.92 961.49 523.09 973.35 510.46 971.24 505.62 983.09 492.99 980.98M541.49 944.77L536.66 956.62 524.03 954.51 519.19 966.37 506.56 964.25 501.72 976.11 489.09 973.99M537.6 937.78L532.76 949.64 520.13 947.52 515.29 959.38 502.66 957.26 497.83 969.12 485.19 967.01" stroke="rgba(0, 212, 255, 1)" stroke-width="2.13" stroke-dasharray="3, 2"></path><path d="M404.63 1714.46L412.33 1704.23 424 1709.5 431.71 1699.27 443.38 1704.55 451.08 1694.32 462.75 1699.59M406.61 1722.21L414.31 1711.98 425.98 1717.25 433.69 1707.02 445.36 1712.3 453.07 1702.07 464.74 1707.34M408.59 1729.96L416.3 1719.73 427.97 1725 435.67 1714.78 447.34 1720.05 455.05 1709.82 466.72 1715.09" stroke="rgba(144, 6, 161, 1)" stroke-width="1"></path><path d="M946.02 2080.3 L850.65 2073.2L834.5183748610959 2140.566625138904z" stroke="rgba(0, 212, 255, 1)" stroke-width="2.08" stroke-dasharray="3, 2"></path><rect width="480" height="480" clip-path="url(&quot;#SvgjsClipPath6558&quot;)" x="-114.14" y="69.72" fill="url(#SvgjsPattern6559)" transform="rotate(329.12, 125.86, 309.72)"></rect><path d="M237.88 1382.99a5.6 5.6 0 1 0 8.37-7.44 5.6 5.6 0 1 0-8.37 7.44zM249.84 1372.36a5.6 5.6 0 1 0 8.37-7.44 5.6 5.6 0 1 0-8.37 7.44zM261.8 1361.73a5.6 5.6 0 1 0 8.37-7.44 5.6 5.6 0 1 0-8.37 7.44zM273.76 1351.1a5.6 5.6 0 1 0 8.37-7.44 5.6 5.6 0 1 0-8.37 7.44z" fill="rgba(0, 212, 255, 1)"></path></g><defs><mask id="SvgjsMask6555"><rect width="1000" height="2000" fill="#ffffff"></rect></mask><pattern x="0" y="0" width="6" height="6" patternUnits="userSpaceOnUse" id="SvgjsPattern6557"><path d="M3 1L3 5M1 3L5 3" stroke="rgba(9, 9, 121, 1)" fill="none" stroke-width="1"></path></pattern><clipPath id="SvgjsClipPath6556"><circle r="15" cx="431.57" cy="1516.69"></circle></clipPath><pattern x="0" y="0" width="6" height="6" patternUnits="userSpaceOnUse" id="SvgjsPattern6559"><path d="M3 1L3 5M1 3L5 3" stroke="rgba(9, 9, 121, 1)" fill="none" stroke-width="1.16"></path></pattern><clipPath id="SvgjsClipPath6558"><circle r="120" cx="125.86" cy="309.72"></circle></clipPath></defs></svg>