<svg xmlns="http://www.w3.org/2000/svg" version="1.1" xmlns:xlink="http://www.w3.org/1999/xlink" xmlns:svgjs="http://svgjs.com/svgjs" width="1000" height="2000" preserveAspectRatio="none" viewBox="0 0 1000 2000"><g mask="url(&quot;#SvgjsMask6560&quot;)" fill="none"><circle r="84.79702681204533" cx="825.65" cy="125.95" stroke="rgba(9, 9, 121, 1)" stroke-width="1.12" stroke-dasharray="4, 4"></circle><path d="M728.69 1316.1L724.97 1303.84 736.11 1297.53 732.4 1285.27 743.54 1278.96 739.83 1266.7 750.97 1260.39M736.12 1319.07L732.4 1306.81 743.54 1300.5 739.83 1288.25 750.97 1281.93 747.26 1269.68 758.4 1263.36M743.54 1322.04L739.83 1309.79 750.97 1303.47 747.26 1291.22 758.4 1284.9 754.68 1272.65 765.83 1266.33" stroke="rgba(144, 6, 161, 1)" stroke-width="2.99" stroke-dasharray="4, 4"></path><path d="M726.17 271.72 L605.1 368.99L574.9872765625397 229.70727656253973z" stroke="rgba(144, 6, 161, 1)" stroke-width="2.9" stroke-dasharray="2, 2"></path><rect width="288" height="288" clip-path="url(&quot;#SvgjsClipPath6561&quot;)" x="526.71" y="320.24" fill="url(#SvgjsPattern6562)" transform="rotate(84.36, 670.71, 464.24)"></rect><circle r="83.33333333333333" cx="825.48" cy="725.4" fill="rgba(9, 9, 121, 1)"></circle><rect width="508.8" height="508.8" clip-path="url(&quot;#SvgjsClipPath6563&quot;)" x="165.25" y="177.41" fill="url(#SvgjsPattern6564)" transform="rotate(143.41, 419.65, 431.81)"></rect><rect width="120" height="120" clip-path="url(&quot;#SvgjsClipPath6565&quot;)" x="513.92" y="661.16" fill="url(#SvgjsPattern6566)" transform="rotate(284.77, 573.92, 721.16)"></rect><path d="M513.76 1500.69L522.78 1491.59 533.63 1498.39 542.64 1489.3 553.5 1496.09 562.51 1487 573.37 1493.79M514.68 1508.64L523.7 1499.54 534.55 1506.34 543.56 1497.24 554.42 1504.04 563.43 1494.94 574.28 1501.74M515.6 1516.58L524.62 1507.49 535.47 1514.29 544.48 1505.19 555.34 1511.99 564.35 1502.89 575.2 1509.69" stroke="rgba(9, 9, 121, 1)" stroke-width="2.94"></path><circle r="97.5539707674354" cx="19.73" cy="965.32" stroke="rgba(144, 6, 161, 1)" stroke-width="1" stroke-dasharray="3, 3"></circle></g><defs><mask id="SvgjsMask6560"><rect width="1000" height="2000" fill="#ffffff"></rect></mask><pattern x="0" y="0" width="288" height="6" patternUnits="userSpaceOnUse" id="SvgjsPattern6562"><rect width="288" height="3" x="0" y="0" fill="rgba(9, 9, 121, 1)"></rect><rect width="288" height="3" x="0" y="3" fill="rgba(0, 0, 0, 0)"></rect></pattern><clipPath id="SvgjsClipPath6561"><circle r="72" cx="670.71" cy="464.24"></circle></clipPath><pattern x="0" y="0" width="12.72" height="12.72" patternUnits="userSpaceOnUse" id="SvgjsPattern6564"><path d="M0 12.72L6.36 0L12.72 12.72" stroke="rgba(0, 212, 255, 1)" fill="none"></path></pattern><clipPath id="SvgjsClipPath6563"><circle r="127.2" cx="419.65" cy="431.81"></circle></clipPath><pattern x="0" y="0" width="6" height="6" patternUnits="userSpaceOnUse" id="SvgjsPattern6566"><path d="M0 6L3 0L6 6" stroke="rgba(9, 9, 121, 1)" fill="none"></path></pattern><clipPath id="SvgjsClipPath6565"><circle r="30" cx="573.92" cy="721.16"></circle></clipPath></defs></svg>