<?xml version="1.0" encoding="UTF-8" standalone="no" ?>
<!DOCTYPE svg PUBLIC "-//W3C//DTD SVG 1.1//EN" "http://www.w3.org/Graphics/SVG/1.1/DTD/svg11.dtd">
<svg xmlns="http://www.w3.org/2000/svg" xmlns:xlink="http://www.w3.org/1999/xlink" version="1.1" width="400" height="400" viewBox="0 0 400 400" xml:space="preserve">
<desc>Created with Fabric.js 3.6.2</desc>
<defs>
</defs>
<g transform="matrix(6.25 0 0 6.25 200 200)" id="_31-Video"  >
<path style="stroke: none; stroke-width: 1; stroke-dasharray: none; stroke-linecap: butt; stroke-dashoffset: 0; stroke-linejoin: miter; stroke-miterlimit: 4; fill: rgb(0,0,0); fill-rule: nonzero; opacity: 1;"  transform=" translate(-16, -16)" d="M 31 7 H 28 a 1 1 0 0 0 -0.71 0.29 L 25.59 9 H 24 V 8 a 3 3 0 0 0 -3 -3 H 3 A 3 3 0 0 0 0 8 V 24 a 3 3 0 0 0 3 3 H 21 a 3 3 0 0 0 3 -3 V 23 h 1.59 l 1.71 1.71 A 1 1 0 0 0 28 25 h 3 a 1 1 0 0 0 1 -1 V 8 A 1 1 0 0 0 31 7 Z M 30 23 H 28.41 l -1.71 -1.71 A 1 1 0 0 0 26 21 H 23 a 1 1 0 0 0 -1 1 v 2 a 1 1 0 0 1 -1 1 H 3 a 1 1 0 0 1 -1 -1 V 8 A 1 1 0 0 1 3 7 H 21 a 1 1 0 0 1 1 1 V 18 h 2 V 11 h 2 a 1 1 0 0 0 0.71 -0.29 L 28.41 9 H 30 Z" stroke-linecap="round" />
</g>
</svg>